<svg width="100" height="100" viewBox="0 0 100 100" fill="none" xmlns="http://www.w3.org/2000/svg">
<path d="M87.5 84.375C87.5 85.2038 87.1708 85.9987 86.5847 86.5847C85.9987 87.1708 85.2038 87.5 84.375 87.5H15.625C14.7962 87.5 14.0013 87.1708 13.4153 86.5847C12.8292 85.9987 12.5 85.2038 12.5 84.375C12.5 83.5462 12.8292 82.7513 13.4153 82.1653C14.0013 81.5792 14.7962 81.25 15.625 81.25H34.375V56.25H32.8125C25.7699 56.2428 19.0178 53.4419 14.038 48.462C9.0581 43.4822 6.25724 36.7301 6.25 29.6875C6.25 26.7867 7.40234 24.0047 9.45352 21.9535C11.5047 19.9023 14.2867 18.75 17.1875 18.75C20.0883 18.75 22.8703 19.9023 24.9215 21.9535C26.9727 24.0047 28.125 26.7867 28.125 29.6875C28.125 30.9307 28.6189 32.123 29.4979 33.0021C30.377 33.8811 31.5693 34.375 32.8125 34.375H34.375V21.875C34.375 17.731 36.0212 13.7567 38.9515 10.8265C41.8817 7.8962 45.856 6.25 50 6.25C54.144 6.25 58.1183 7.8962 61.0485 10.8265C63.9788 13.7567 65.625 17.731 65.625 21.875V50H67.1875C68.4307 50 69.623 49.5061 70.5021 48.6271C71.3811 47.748 71.875 46.5557 71.875 45.3125C71.875 42.4117 73.0273 39.6297 75.0785 37.5785C77.1297 35.5273 79.9117 34.375 82.8125 34.375C85.7133 34.375 88.4953 35.5273 90.5465 37.5785C92.5977 39.6297 93.75 42.4117 93.75 45.3125C93.7428 52.3551 90.9419 59.1072 85.962 64.087C80.9822 69.0669 74.2301 71.8678 67.1875 71.875H65.625V81.25H84.375C85.2038 81.25 85.9987 81.5792 86.5847 82.1653C87.1708 82.7513 87.5 83.5462 87.5 84.375Z" fill="#3EA4F0"/>
</svg>
