<svg width="50" height="50" viewBox="0 0 50 50" fill="none" xmlns="http://www.w3.org/2000/svg">
<path d="M40.625 6.25H35.9375V4.6875C35.9375 4.2731 35.7729 3.87567 35.4799 3.58265C35.1868 3.28962 34.7894 3.125 34.375 3.125C33.9606 3.125 33.5632 3.28962 33.2701 3.58265C32.9771 3.87567 32.8125 4.2731 32.8125 4.6875V6.25H17.1875V4.6875C17.1875 4.2731 17.0229 3.87567 16.7299 3.58265C16.4368 3.28962 16.0394 3.125 15.625 3.125C15.2106 3.125 14.8132 3.28962 14.5201 3.58265C14.2271 3.87567 14.0625 4.2731 14.0625 4.6875V6.25H9.375C8.5462 6.25 7.75134 6.57924 7.16529 7.16529C6.57924 7.75134 6.25 8.5462 6.25 9.375V40.625C6.25 41.4538 6.57924 42.2487 7.16529 42.8347C7.75134 43.4208 8.5462 43.75 9.375 43.75H40.625C41.4538 43.75 42.2487 43.4208 42.8347 42.8347C43.4208 42.2487 43.75 41.4538 43.75 40.625V9.375C43.75 8.5462 43.4208 7.75134 42.8347 7.16529C42.2487 6.57924 41.4538 6.25 40.625 6.25ZM21.875 35.9375C21.875 36.3519 21.7104 36.7493 21.4174 37.0424C21.1243 37.3354 20.7269 37.5 20.3125 37.5C19.8981 37.5 19.5007 37.3354 19.2076 37.0424C18.9146 36.7493 18.75 36.3519 18.75 35.9375V25.9648L17.8867 26.3984C17.5158 26.5839 17.0865 26.6144 16.6931 26.4833C16.2997 26.3521 15.9745 26.0701 15.7891 25.6992C15.6036 25.3283 15.5731 24.899 15.7042 24.5056C15.8354 24.1122 16.1174 23.787 16.4883 23.6016L19.6133 22.0391C19.8516 21.9198 20.1164 21.8635 20.3826 21.8755C20.6488 21.8874 20.9076 21.9673 21.1342 22.1074C21.3609 22.2475 21.5479 22.4433 21.6776 22.6761C21.8072 22.9089 21.8752 23.171 21.875 23.4375V35.9375ZM32.8125 34.375C33.2269 34.375 33.6243 34.5396 33.9174 34.8326C34.2104 35.1257 34.375 35.5231 34.375 35.9375C34.375 36.3519 34.2104 36.7493 33.9174 37.0424C33.6243 37.3354 33.2269 37.5 32.8125 37.5H26.5625C26.2723 37.5 25.9879 37.4192 25.741 37.2666C25.4942 37.1141 25.2947 36.8958 25.165 36.6363C25.0352 36.3767 24.9803 36.0862 25.0063 35.7972C25.0324 35.5082 25.1384 35.2321 25.3125 35L30.9336 27.5059C31.0615 27.3356 31.1532 27.1411 31.2031 26.9342C31.2531 26.7272 31.2603 26.5123 31.2242 26.3025C31.1881 26.0927 31.1095 25.8925 30.9932 25.7141C30.8769 25.5358 30.7255 25.3831 30.5481 25.2654C30.3707 25.1477 30.1711 25.0675 29.9616 25.0297C29.7521 24.992 29.5371 24.9974 29.3297 25.0457C29.1224 25.094 28.9271 25.1842 28.7559 25.3106C28.5847 25.4371 28.4411 25.5973 28.334 25.7812C28.2344 25.9646 28.0991 26.1262 27.9361 26.2564C27.7731 26.3866 27.5856 26.4829 27.3848 26.5395C27.184 26.5961 26.9739 26.6119 26.7668 26.586C26.5598 26.5601 26.36 26.493 26.1793 26.3886C25.9987 26.2843 25.8407 26.1448 25.7148 25.9784C25.5889 25.812 25.4976 25.6221 25.4463 25.4198C25.395 25.2176 25.3848 25.0071 25.4161 24.8008C25.4475 24.5945 25.5198 24.3966 25.6289 24.2188C26.145 23.3256 26.9414 22.6276 27.8946 22.233C28.8477 21.8384 29.9044 21.7693 30.9008 22.0363C31.8973 22.3033 32.7778 22.8916 33.4059 23.7099C34.034 24.5282 34.3747 25.5309 34.375 26.5625C34.3783 27.5815 34.0461 28.5733 33.4297 29.3848L29.6875 34.375H32.8125ZM9.375 15.625V9.375H14.0625V10.9375C14.0625 11.3519 14.2271 11.7493 14.5201 12.0424C14.8132 12.3354 15.2106 12.5 15.625 12.5C16.0394 12.5 16.4368 12.3354 16.7299 12.0424C17.0229 11.7493 17.1875 11.3519 17.1875 10.9375V9.375H32.8125V10.9375C32.8125 11.3519 32.9771 11.7493 33.2701 12.0424C33.5632 12.3354 33.9606 12.5 34.375 12.5C34.7894 12.5 35.1868 12.3354 35.4799 12.0424C35.7729 11.7493 35.9375 11.3519 35.9375 10.9375V9.375H40.625V15.625H9.375Z" fill="#F24E1E"/>
</svg>
