<svg width="121" height="43" viewBox="0 0 121 43" fill="none" xmlns="http://www.w3.org/2000/svg">
<path d="M0.448 18V1.296H1.336V6.024C2.984 6.024 4.544 6.344 6.016 6.984C7.488 7.608 8.776 8.488 9.88 9.624C10.984 10.744 11.832 12.032 12.424 13.488V1.296H13.312V18H12.424C12.424 16 11.928 14.152 10.936 12.456C9.944 10.744 8.592 9.392 6.88 8.4C5.184 7.408 3.336 6.912 1.336 6.912V18H0.448ZM18.6456 1.296H30.8136V5.52H23.0136V7.632H29.4936V11.64H23.0136V13.776H30.8136V18H18.6456V1.296ZM50.2833 18H34.5393L42.4113 0.935999L50.2833 18ZM35.9313 17.112H48.8913L42.4113 3.048L35.9313 17.112ZM67.4729 13.752V18H54.7529V1.296H55.6409V13.752H67.4729ZM77.5105 18V5.52H71.1985V1.296H84.6865V5.52H78.3745V18H77.5105ZM89.2761 18V1.296H90.1641V6.024C91.8121 6.024 93.3721 6.344 94.8441 6.984C96.3161 7.608 97.6041 8.488 98.7081 9.624C99.8121 10.744 100.66 12.032 101.252 13.488V1.296H102.14V18H101.252C101.252 16 100.756 14.152 99.7641 12.456C98.7721 10.744 97.4201 9.392 95.7081 8.4C94.0121 7.408 92.1641 6.912 90.1641 6.912V18H89.2761ZM6.448 42V29.52H0.136V25.296H13.624V29.52H7.312V42H6.448ZM31.5576 42H18.7176V25.296H25.2216C26.6136 25.296 27.7496 25.544 28.6296 26.04C29.4936 26.52 30.1656 27.176 30.6456 28.008C31.1256 28.84 31.3656 29.76 31.3656 30.768C31.3656 32.016 30.9816 33.136 30.2136 34.128C29.4456 35.104 28.4776 35.752 27.3096 36.072L31.5576 42ZM20.2296 26.184L26.7576 35.304C27.8296 35.08 28.7176 34.544 29.4216 33.696C30.1256 32.848 30.4776 31.872 30.4776 30.768C30.4776 29.888 30.2616 29.088 29.8296 28.368C29.3976 27.648 28.7896 27.096 28.0056 26.712C27.3016 26.36 26.3816 26.184 25.2456 26.184H20.2296ZM19.6056 26.76V35.376H25.7736L19.6056 26.76ZM19.6056 41.112H29.8776L26.3736 36.24L25.6296 36.264H19.6056V41.112ZM50.2833 42H34.5393L42.4113 24.936L50.2833 42ZM35.9313 41.112H48.8913L42.4113 27.048L35.9313 41.112ZM67.0649 35.688C67.0809 37.784 66.4809 39.424 65.2649 40.608C64.0489 41.776 62.3769 42.36 60.2489 42.36C58.9849 42.36 57.8169 42.072 56.7449 41.496C55.6889 40.92 54.8489 40.104 54.2249 39.048C53.6009 37.992 53.2889 36.776 53.2889 35.4V31.896C53.2889 30.536 53.5849 29.328 54.1769 28.272C54.7849 27.216 55.6089 26.4 56.6489 25.824C57.7049 25.232 58.8809 24.936 60.1769 24.936C62.3049 24.936 63.9689 25.52 65.1689 26.688C66.3849 27.84 67.0009 29.472 67.0169 31.584H62.6969C62.6809 30.768 62.4569 30.136 62.0249 29.688C61.6089 29.24 60.9929 29.016 60.1769 29.016C59.4409 29.016 58.8329 29.248 58.3529 29.712C57.8729 30.176 57.6329 30.832 57.6329 31.68V35.592C57.6329 36.44 57.8809 37.104 58.3769 37.584C58.8889 38.048 59.5129 38.28 60.2489 38.28C61.9289 38.28 62.7689 37.416 62.7689 35.688H67.0649ZM78.1825 32.256L85.1425 42H71.7025V25.296H85.1425L78.1825 32.256ZM77.5585 32.88L72.5905 37.848V41.112H83.4385L77.5585 32.88ZM89.7081 25.296H101.876V29.52H94.0761V31.632H100.556V35.64H94.0761V37.776H101.876V42H89.7081V25.296ZM120.386 42H107.546V25.296H114.05C115.442 25.296 116.578 25.544 117.458 26.04C118.322 26.52 118.994 27.176 119.474 28.008C119.954 28.84 120.194 29.76 120.194 30.768C120.194 32.016 119.81 33.136 119.042 34.128C118.274 35.104 117.306 35.752 116.138 36.072L120.386 42ZM109.058 26.184L115.586 35.304C116.658 35.08 117.546 34.544 118.25 33.696C118.954 32.848 119.306 31.872 119.306 30.768C119.306 29.888 119.09 29.088 118.658 28.368C118.226 27.648 117.618 27.096 116.834 26.712C116.13 26.36 115.21 26.184 114.074 26.184H109.058ZM108.434 26.76V35.376H114.602L108.434 26.76ZM108.434 41.112H118.706L115.202 36.24L114.458 36.264H108.434V41.112Z" fill="#14F3CB"/>
</svg>
