<svg width="150" height="150" viewBox="0 0 150 150" fill="none" xmlns="http://www.w3.org/2000/svg">
<path d="M103.125 35.625C104.484 35.6251 105.797 36.1173 106.822 37.0108C107.846 37.9042 108.513 39.1383 108.697 40.485L108.75 41.25V108.75C108.749 110.175 108.208 111.547 107.235 112.588C106.262 113.63 104.93 114.263 103.508 114.36C102.086 114.457 100.681 114.011 99.5752 113.112C98.4696 112.212 97.7467 110.927 97.5524 109.515L97.4999 108.75V41.25C97.4999 39.7582 98.0926 38.3274 99.1475 37.2725C100.202 36.2176 101.633 35.625 103.125 35.625ZM41.0249 37.275C41.9773 36.3224 43.24 35.7432 44.5833 35.6427C45.9266 35.5422 47.2614 35.9271 48.3449 36.7275L48.9749 37.275L82.7249 71.025C83.6776 71.9774 84.2568 73.2401 84.3573 74.5834C84.4577 75.9267 84.0728 77.2615 83.2724 78.345L82.7249 78.975L48.9749 112.725C47.9699 113.722 46.6259 114.304 45.211 114.354C43.7961 114.403 42.4145 113.918 41.3418 112.994C40.2691 112.07 39.5844 110.775 39.4242 109.369C39.2639 107.962 39.64 106.547 40.4774 105.405L41.0249 104.775L70.7999 75L41.0249 45.225C39.9716 44.1703 39.3799 42.7406 39.3799 41.25C39.3799 39.7594 39.9716 38.3297 41.0249 37.275Z" fill="#3EA4F0"/>
</svg>
