<svg width="150" height="150" viewBox="0 0 150 150" fill="none" xmlns="http://www.w3.org/2000/svg">
<path d="M56.9533 131.309V127.325C57.0412 127.002 57.1876 126.709 57.2462 126.387C58.5353 118.008 65.508 111.387 73.6816 110.83C82.8223 110.186 90.5566 115.401 93.0762 123.897C93.3984 125.01 93.6328 126.182 93.9258 127.324V131.309C93.8379 131.572 93.6914 131.807 93.6621 132.1C92.4023 139.834 86.8359 145.723 79.2188 147.393C78.6328 147.51 78.0469 147.686 77.4609 147.832H73.4766C73.2129 147.744 72.9492 147.598 72.6855 147.568C65.0684 146.338 59.2677 140.918 57.5098 133.389C57.334 132.656 57.129 131.982 56.9533 131.309ZM93.9259 18.6919L93.9258 22.6765C93.8379 22.9988 93.6914 23.2918 93.6621 23.614C92.3437 32.0515 85.3418 38.6433 77.0801 39.1707C67.9687 39.7566 60.2637 34.4832 57.7734 25.9578C57.4512 24.8737 57.2168 23.7605 56.9531 22.6764V18.692C57.041 18.4283 57.1875 18.194 57.2461 17.9303C58.6523 10.3131 63.0762 5.33264 70.459 2.95959C71.4258 2.63733 72.4512 2.46155 73.4473 2.19788H77.4316C77.6953 2.28577 77.959 2.43225 78.2227 2.46155C85.8691 3.72131 91.6406 9.11194 93.3984 16.6412C93.5744 17.3444 93.7501 18.0182 93.9259 18.6919ZM93.9258 73.0084V76.9928C93.8379 77.3151 93.6914 77.608 93.6328 77.9303C92.3144 86.3385 85.0488 93.1061 76.8457 93.4576C67.6172 93.8678 59.7949 88.3014 57.5977 79.7174C57.3633 78.8092 57.1582 77.901 56.9531 76.9928V73.0084C57.041 72.6862 57.1875 72.3932 57.2461 72.0709C58.5352 63.6627 65.8301 56.895 74.0332 56.5143C83.2617 56.0748 91.084 61.6705 93.2812 70.2545C93.5156 71.192 93.7207 72.1002 93.9258 73.0084Z" fill="#545454"/>
</svg>
