<svg width="150" height="150" viewBox="0 0 150 150" fill="none" xmlns="http://www.w3.org/2000/svg">
<path d="M45 35.625C43.6407 35.6251 42.3274 36.1173 41.303 37.0108C40.2786 37.9042 39.6124 39.1383 39.4275 40.485L39.375 41.25V108.75C39.3754 110.175 39.9168 111.547 40.8898 112.588C41.8628 113.63 43.1947 114.263 44.6166 114.36C46.0385 114.457 47.4442 114.011 48.5497 113.112C49.6553 112.212 50.3782 110.927 50.5725 109.515L50.625 108.75V41.25C50.625 39.7582 50.0324 38.3274 48.9775 37.2725C47.9226 36.2176 46.4918 35.625 45 35.625ZM107.1 37.275C106.148 36.3224 104.885 35.7432 103.542 35.6427C102.198 35.5422 100.864 35.9271 99.78 36.7275L99.15 37.275L65.4 71.025C64.4474 71.9774 63.8682 73.2401 63.7677 74.5834C63.6672 75.9267 64.0521 77.2615 64.8525 78.345L65.4 78.975L99.15 112.725C100.155 113.722 101.499 114.304 102.914 114.354C104.329 114.403 105.71 113.918 106.783 112.994C107.856 112.07 108.541 110.775 108.701 109.369C108.861 107.962 108.485 106.547 107.647 105.405L107.1 104.775L77.325 75L107.1 45.225C108.153 44.1703 108.745 42.7406 108.745 41.25C108.745 39.7594 108.153 38.3297 107.1 37.275Z" fill="#3EA4F0"/>
</svg>
