<svg width="150" height="150" viewBox="0 0 150 150" fill="none" xmlns="http://www.w3.org/2000/svg">
<path d="M68.75 75C68.75 76.6576 69.4085 78.2473 70.5806 79.4194C71.7527 80.5915 73.3424 81.25 75 81.25C76.6576 81.25 78.2473 80.5915 79.4194 79.4194C80.5915 78.2473 81.25 76.6576 81.25 75C81.25 73.3424 80.5915 71.7527 79.4194 70.5806C78.2473 69.4085 76.6576 68.75 75 68.75C73.3424 68.75 71.7527 69.4085 70.5806 70.5806C69.4085 71.7527 68.75 73.3424 68.75 75Z" stroke="#F24E1E" stroke-width="12.5" stroke-linecap="round" stroke-linejoin="round"/>
<path d="M43.75 75C43.75 83.288 47.0424 91.2366 52.9029 97.0971C58.7634 102.958 66.712 106.25 75 106.25C83.288 106.25 91.2366 102.958 97.0971 97.0971C102.958 91.2366 106.25 83.288 106.25 75C106.25 66.712 102.958 58.7634 97.0971 52.9029C91.2366 47.0424 83.288 43.75 75 43.75C66.712 43.75 58.7634 47.0424 52.9029 52.9029C47.0424 58.7634 43.75 66.712 43.75 75Z" stroke="#F24E1E" stroke-width="12.5" stroke-linecap="round" stroke-linejoin="round"/>
<path d="M18.75 75C18.75 82.3869 20.2049 89.7014 23.0318 96.5259C25.8586 103.351 30.0019 109.551 35.2252 114.775C40.4485 119.998 46.6495 124.141 53.4741 126.968C60.2986 129.795 67.6131 131.25 75 131.25C82.3869 131.25 89.7014 129.795 96.5259 126.968C103.351 124.141 109.551 119.998 114.775 114.775C119.998 109.551 124.141 103.351 126.968 96.5259C129.795 89.7014 131.25 82.3869 131.25 75C131.25 67.6131 129.795 60.2986 126.968 53.4741C124.141 46.6495 119.998 40.4485 114.775 35.2252C109.551 30.0019 103.351 25.8586 96.5259 23.0318C89.7014 20.2049 82.3869 18.75 75 18.75C67.6131 18.75 60.2986 20.2049 53.4741 23.0318C46.6495 25.8586 40.4485 30.0019 35.2252 35.2252C30.0019 40.4485 25.8586 46.6495 23.0318 53.4741C20.2049 60.2986 18.75 67.6131 18.75 75Z" stroke="#F24E1E" stroke-width="12.5" stroke-linecap="round" stroke-linejoin="round"/>
</svg>
